<svg version="1.1" id="Capa_1" xmlns="http://www.w3.org/2000/svg" xmlns:xlink="http://www.w3.org/1999/xlink" x="0px" y="0px"
	 viewBox="0 0 6.5 4.37" style="enable-background:new 0 0 6.5 4.37;" xml:space="preserve">
<style type="text/css">
	.st0{fill:#E63946;}
	.st1{fill:#91212A;}
</style>
<g id="cine">
	<path class="st0" d="M4.87,3.2V1.17H6.3v0.4H5.29v0.39h0.58v0.4H5.29V2.8h1.07v0.4H4.87z"/>
	<path class="st0" d="M2.77,3.2V1.17h0.38l0.77,1.12C3.94,2.3,3.95,2.32,3.97,2.35C3.99,2.38,4,2.41,4.01,2.43
		C4.01,2.41,4,2.39,4,2.35C4,2.32,4,2.3,4,2.28V1.17h0.42V3.2H4.05L3.26,2.08C3.25,2.06,3.24,2.04,3.22,2.01
		C3.2,1.97,3.19,1.95,3.18,1.92c0,0.02,0.01,0.05,0.01,0.08c0,0.03,0,0.05,0,0.07V3.2H2.77z"/>
	<path class="st0" d="M1.9,3.2V1.17h0.42V3.2H1.9z"/>
	<path class="st0" d="M0.86,3.23c-0.16,0-0.29-0.03-0.41-0.09C0.34,3.08,0.26,3,0.19,2.9S0.07,2.68,0.04,2.56
		C0.01,2.44,0,2.31,0,2.18c0-0.12,0.02-0.24,0.05-0.36C0.08,1.7,0.12,1.58,0.19,1.48c0.07-0.1,0.16-0.19,0.26-0.25
		c0.11-0.06,0.24-0.1,0.4-0.1c0.13,0,0.24,0.02,0.34,0.07c0.1,0.05,0.18,0.1,0.25,0.18s0.12,0.15,0.15,0.23L1.22,1.77
		c-0.03-0.05-0.07-0.09-0.1-0.13C1.08,1.61,1.05,1.58,1,1.56S0.91,1.53,0.86,1.53c-0.08,0-0.15,0.02-0.2,0.06
		C0.6,1.63,0.56,1.68,0.53,1.75S0.47,1.89,0.46,1.96S0.43,2.11,0.43,2.18c0,0.08,0.01,0.15,0.03,0.23S0.5,2.56,0.53,2.62
		c0.03,0.06,0.08,0.11,0.13,0.15c0.05,0.04,0.12,0.06,0.19,0.06c0.08,0,0.14-0.02,0.2-0.07s0.11-0.11,0.16-0.19L1.6,2.71
		C1.55,2.81,1.5,2.9,1.43,2.98C1.36,3.06,1.28,3.12,1.18,3.17C1.09,3.21,0.98,3.23,0.86,3.23z"/>
</g>
<g id="iso">
	<path class="st0" d="M-1.93,0.09c-0.51,0-1.03,0.13-1.28,0.37c-0.25-0.24-0.77-0.37-1.28-0.37c-0.68,0-1.41,0.24-1.41,0.67v2.85
		c0,0.08,0.06,0.14,0.14,0.14c0.07,0,0.13-0.06,0.13-0.14c0-0.16,0.45-0.39,1.14-0.39c0.7,0,1.14,0.23,1.14,0.39
		c0,0.08,0.06,0.14,0.14,0.14s0.14-0.06,0.14-0.14c0-0.16,0.44-0.39,1.14-0.39c0.1,0,0.19,0,0.28,0.01v0.4
		c-0.09,0.01-0.18,0.01-0.28,0.01v0.63c0.66,0,1.35-0.21,1.41-0.6c0.01-0.02,0.01-0.04,0.01-0.06V0.76
		C-0.51,0.33-1.24,0.09-1.93,0.09z M-3.35,3.2c-0.27-0.17-0.71-0.26-1.14-0.26c-0.42,0-0.86,0.09-1.14,0.26V0.76
		c0-0.16,0.45-0.39,1.14-0.39c0.7,0,1.14,0.23,1.14,0.39V3.2z M-1.08,3.51c-0.09,0.03-0.18,0.06-0.28,0.08V3.1
		c0.2-0.05,0.25-0.08,0.28-0.1V3.51z M-1.08,2.11c-0.07,0.03-0.27,0.08-0.28,0.08V1.7c0.1-0.02,0.19-0.04,0.28-0.07V2.11z
		 M-1.93,1.14v0.62c0.1,0,0.19-0.01,0.28-0.02v0.49c-0.09,0.01-0.18,0.01-0.28,0.01v0.7c-0.42,0-0.86,0.09-1.14,0.26V0.76
		c0-0.16,0.44-0.39,1.14-0.39c0.7,0,1.14,0.23,1.14,0.39C-0.79,0.91-1.24,1.14-1.93,1.14z M-0.65,3.12c0,0.09-0.05,0.16-0.14,0.24
		v0.01H-0.8V2.88l0.01-0.01C-0.7,2.8-0.65,2.72-0.65,2.64V3.12z M-0.65,1.72c0,0.09-0.05,0.17-0.14,0.24L-0.8,1.97V1.48l0.01-0.01
		C-0.7,1.4-0.65,1.32-0.65,1.24V1.72z"/>
	<g>
		<path class="st1" d="M-3.35,0.76V3.2c-0.27-0.17-0.71-0.26-1.14-0.26c-0.42,0-0.86,0.09-1.14,0.26V0.76
			c0-0.16,0.45-0.39,1.14-0.39C-3.79,0.37-3.35,0.6-3.35,0.76z"/>
	</g>
	<g>
		<path class="st1" d="M-1.93,1.14v0.62c0.1,0,0.19-0.01,0.28-0.02v0.49c-0.09,0.01-0.18,0.01-0.28,0.01v0.7
			c-0.42,0-0.86,0.09-1.14,0.26V0.76c0-0.16,0.44-0.39,1.14-0.39c0.7,0,1.14,0.23,1.14,0.39C-0.79,0.91-1.24,1.14-1.93,1.14z"/>
		<rect x="-0.8" y="3.36" class="st1" width="0.01" height="0.01"/>
		<path class="st1" d="M-0.8,3.36v0.01h0.01V3.36H-0.8z"/>
	</g>
</g>
<g id="maga">
	<path class="st1" d="M-10.98,3.2l0.71-2.04h0.13l0.71,2.04H-9.6l-0.19-0.55h-0.84l-0.19,0.55H-10.98z M-10.59,2.52h0.75l-0.29-0.83
		c-0.01-0.02-0.01-0.04-0.03-0.08c-0.01-0.04-0.02-0.07-0.04-0.11c-0.01-0.04-0.02-0.07-0.03-0.1c-0.01,0.03-0.02,0.06-0.03,0.1
		c-0.01,0.04-0.02,0.08-0.04,0.11c-0.01,0.04-0.02,0.06-0.03,0.08L-10.59,2.52z"/>
	<path class="st1" d="M-8.47,3.24c-0.15,0-0.27-0.03-0.38-0.09c-0.1-0.06-0.19-0.14-0.25-0.24S-9.21,2.7-9.24,2.57
		c-0.03-0.13-0.05-0.25-0.05-0.39c0-0.14,0.02-0.27,0.05-0.39c0.03-0.13,0.08-0.24,0.15-0.34c0.07-0.1,0.15-0.18,0.25-0.23
		c0.1-0.06,0.23-0.09,0.37-0.09c0.11,0,0.2,0.02,0.27,0.05C-8.12,1.21-8.06,1.24-8,1.29c0.05,0.05,0.09,0.1,0.13,0.15l-0.14,0.08
		c-0.05-0.06-0.1-0.12-0.17-0.17C-8.26,1.3-8.35,1.28-8.47,1.28c-0.12,0-0.23,0.03-0.31,0.08s-0.15,0.12-0.2,0.21
		c-0.05,0.09-0.09,0.19-0.11,0.29c-0.02,0.11-0.03,0.21-0.03,0.32c0,0.12,0.01,0.23,0.04,0.34c0.02,0.11,0.06,0.2,0.12,0.29
		c0.05,0.09,0.12,0.15,0.2,0.2c0.08,0.05,0.18,0.07,0.3,0.07c0.1,0,0.19-0.02,0.27-0.07C-8.12,2.97-8.06,2.9-8.02,2.8
		c0.04-0.09,0.06-0.21,0.06-0.35V2.41h-0.41V2.26h0.57v0.15c0,0.19-0.03,0.35-0.09,0.47C-7.94,3-8.02,3.09-8.12,3.15
		C-8.22,3.21-8.34,3.24-8.47,3.24z"/>
	<path class="st1" d="M-7.68,3.2l0.71-2.04h0.13l0.71,2.04h-0.16l-0.19-0.55h-0.84L-7.51,3.2H-7.68z M-7.28,2.52h0.75l-0.29-0.83
		c-0.01-0.02-0.01-0.04-0.03-0.08C-6.85,1.58-6.86,1.54-6.88,1.5C-6.89,1.46-6.9,1.43-6.9,1.41c-0.01,0.03-0.02,0.06-0.03,0.1
		c-0.01,0.04-0.02,0.08-0.04,0.11C-6.98,1.65-6.99,1.68-7,1.69L-7.28,2.52z"/>
	<path class="st1" d="M-12.12,3.24l-0.64-1.52c-0.01-0.03-0.02-0.05-0.03-0.08c-0.01-0.03-0.02-0.05-0.03-0.08c0,0.02,0,0.05,0,0.08
		c0,0.03,0,0.06,0,0.08V3.2h-0.15V1.17h0.14l0.66,1.56c0.01,0.02,0.02,0.05,0.03,0.07s0.02,0.05,0.03,0.07
		c0.01-0.02,0.02-0.05,0.03-0.07c0.01-0.02,0.02-0.05,0.03-0.07l0.66-1.56h0.14V3.2h-0.15V1.71c0-0.03,0-0.05,0-0.08
		c0-0.03,0-0.05,0-0.08c-0.01,0.03-0.02,0.05-0.03,0.08c-0.01,0.03-0.02,0.06-0.03,0.08L-12.12,3.24z"/>
</g>
</svg>
