<svg version="1.1" id="Capa_1" xmlns="http://www.w3.org/2000/svg" xmlns:xlink="http://www.w3.org/1999/xlink" x="0px" y="0px"
	 viewBox="0 0 5.52 4.37" style="enable-background:new 0 0 5.52 4.37;" xml:space="preserve">
<style type="text/css">
	.st0{fill:#E63946;}
	.st1{fill:#91212A;}
</style>
<g id="cine">
	<path class="st0" d="M10.83,3.2V1.17h1.43v0.4h-1.01v0.39h0.58v0.4h-0.58V2.8h1.07v0.4H10.83z"/>
	<path class="st0" d="M8.73,3.2V1.17h0.38l0.77,1.12C9.9,2.3,9.91,2.32,9.93,2.35c0.02,0.03,0.03,0.06,0.04,0.08
		c0-0.02-0.01-0.05-0.01-0.08c0-0.03,0-0.06,0-0.07V1.17h0.42V3.2h-0.37L9.22,2.08C9.21,2.06,9.2,2.04,9.18,2.01
		C9.16,1.97,9.15,1.95,9.14,1.92c0,0.02,0.01,0.05,0.01,0.08c0,0.03,0,0.05,0,0.07V3.2H8.73z"/>
	<path class="st0" d="M7.86,3.2V1.17h0.42V3.2H7.86z"/>
	<path class="st0" d="M6.82,3.23c-0.16,0-0.29-0.03-0.41-0.09C6.3,3.08,6.22,3,6.15,2.9S6.03,2.68,6.01,2.56
		C5.97,2.44,5.96,2.31,5.96,2.18c0-0.12,0.02-0.24,0.05-0.36C6.04,1.7,6.09,1.58,6.15,1.48c0.07-0.1,0.16-0.19,0.26-0.25
		c0.11-0.06,0.24-0.1,0.4-0.1c0.13,0,0.24,0.02,0.34,0.07c0.1,0.05,0.18,0.1,0.25,0.18s0.12,0.15,0.15,0.23L7.18,1.77
		c-0.03-0.05-0.07-0.09-0.1-0.13C7.04,1.61,7.01,1.58,6.97,1.56S6.87,1.53,6.82,1.53c-0.08,0-0.15,0.02-0.2,0.06
		c-0.05,0.04-0.1,0.09-0.13,0.16S6.43,1.89,6.42,1.96S6.39,2.11,6.39,2.18c0,0.08,0.01,0.15,0.03,0.23s0.04,0.15,0.08,0.21
		c0.03,0.06,0.08,0.11,0.13,0.15c0.05,0.04,0.12,0.06,0.19,0.06c0.08,0,0.14-0.02,0.2-0.07s0.11-0.11,0.16-0.19l0.38,0.14
		c-0.05,0.1-0.1,0.19-0.17,0.27C7.32,3.06,7.24,3.12,7.14,3.17C7.05,3.21,6.94,3.23,6.82,3.23z"/>
</g>
<g id="iso">
	<path class="st0" d="M4.03,0.09C3.52,0.09,3,0.22,2.75,0.46C2.5,0.22,1.98,0.09,1.47,0.09c-0.68,0-1.41,0.24-1.41,0.67v2.85
		c0,0.08,0.06,0.14,0.14,0.14c0.07,0,0.13-0.06,0.13-0.14c0-0.16,0.45-0.39,1.14-0.39c0.7,0,1.14,0.23,1.14,0.39
		c0,0.08,0.06,0.14,0.14,0.14s0.14-0.06,0.14-0.14c0-0.16,0.44-0.39,1.14-0.39c0.1,0,0.19,0,0.28,0.01v0.4
		C4.22,3.64,4.13,3.64,4.03,3.64v0.63c0.66,0,1.35-0.21,1.41-0.6c0.01-0.02,0.01-0.04,0.01-0.06V0.76C5.45,0.33,4.72,0.09,4.03,0.09
		z M2.61,3.2C2.34,3.03,1.9,2.94,1.47,2.94c-0.42,0-0.86,0.09-1.14,0.26V0.76c0-0.16,0.45-0.39,1.14-0.39c0.7,0,1.14,0.23,1.14,0.39
		V3.2z M4.88,3.51C4.79,3.54,4.7,3.57,4.6,3.59V3.1c0.2-0.05,0.25-0.08,0.28-0.1V3.51z M4.88,2.11C4.81,2.14,4.61,2.19,4.6,2.19V1.7
		c0.1-0.02,0.19-0.04,0.28-0.07V2.11z M4.03,1.14v0.62c0.1,0,0.19-0.01,0.28-0.02v0.49C4.22,2.24,4.13,2.24,4.03,2.24v0.7
		c-0.42,0-0.86,0.09-1.14,0.26V0.76c0-0.16,0.44-0.39,1.14-0.39c0.7,0,1.14,0.23,1.14,0.39C5.17,0.91,4.72,1.14,4.03,1.14z
		 M5.31,3.12c0,0.09-0.05,0.16-0.14,0.24v0.01H5.16V2.88l0.01-0.01C5.26,2.8,5.31,2.72,5.31,2.64V3.12z M5.31,1.72
		c0,0.09-0.05,0.17-0.14,0.24L5.16,1.97V1.48l0.01-0.01C5.26,1.4,5.31,1.32,5.31,1.24V1.72z"/>
	<g>
		<path class="st1" d="M2.61,0.76V3.2C2.34,3.03,1.9,2.94,1.47,2.94c-0.42,0-0.86,0.09-1.14,0.26V0.76c0-0.16,0.45-0.39,1.14-0.39
			C2.17,0.37,2.61,0.6,2.61,0.76z"/>
	</g>
	<g>
		<path class="st1" d="M4.03,1.14v0.62c0.1,0,0.19-0.01,0.28-0.02v0.49C4.22,2.24,4.13,2.24,4.03,2.24v0.7
			c-0.42,0-0.86,0.09-1.14,0.26V0.76c0-0.16,0.44-0.39,1.14-0.39c0.7,0,1.14,0.23,1.14,0.39C5.17,0.91,4.72,1.14,4.03,1.14z"/>
		<rect x="5.16" y="3.36" class="st1" width="0.01" height="0.01"/>
		<path class="st1" d="M5.16,3.36v0.01h0.01V3.36H5.16z"/>
	</g>
</g>
<g id="maga">
	<path class="st1" d="M-5.02,3.2l0.71-2.04h0.13l0.71,2.04h-0.16l-0.19-0.55h-0.84L-4.86,3.2H-5.02z M-4.63,2.52h0.75l-0.29-0.83
		c-0.01-0.02-0.01-0.04-0.03-0.08C-4.2,1.58-4.21,1.54-4.22,1.5c-0.01-0.04-0.02-0.07-0.03-0.1c-0.01,0.03-0.02,0.06-0.03,0.1
		C-4.29,1.54-4.3,1.58-4.31,1.61c-0.01,0.04-0.02,0.06-0.03,0.08L-4.63,2.52z"/>
	<path class="st1" d="M-2.51,3.24c-0.15,0-0.27-0.03-0.38-0.09c-0.1-0.06-0.19-0.14-0.25-0.24S-3.25,2.7-3.28,2.57
		c-0.03-0.13-0.05-0.25-0.05-0.39c0-0.14,0.02-0.27,0.05-0.39c0.03-0.13,0.08-0.24,0.15-0.34c0.07-0.1,0.15-0.18,0.25-0.23
		c0.1-0.06,0.23-0.09,0.37-0.09c0.11,0,0.2,0.02,0.27,0.05c0.08,0.03,0.14,0.07,0.19,0.11c0.05,0.05,0.09,0.1,0.13,0.15l-0.14,0.08
		C-2.1,1.46-2.16,1.4-2.23,1.35C-2.3,1.3-2.39,1.28-2.51,1.28c-0.12,0-0.23,0.03-0.31,0.08s-0.15,0.12-0.2,0.21
		c-0.05,0.09-0.09,0.19-0.11,0.29c-0.02,0.11-0.03,0.21-0.03,0.32c0,0.12,0.01,0.23,0.04,0.34c0.02,0.11,0.06,0.2,0.12,0.29
		c0.05,0.09,0.12,0.15,0.2,0.2c0.08,0.05,0.18,0.07,0.3,0.07c0.1,0,0.19-0.02,0.27-0.07C-2.16,2.97-2.1,2.9-2.06,2.8
		C-2.02,2.71-2,2.59-2,2.46V2.41h-0.41V2.26h0.57v0.15c0,0.19-0.03,0.35-0.09,0.47C-1.98,3-2.06,3.09-2.16,3.15
		C-2.26,3.21-2.38,3.24-2.51,3.24z"/>
	<path class="st1" d="M-1.72,3.2l0.71-2.04h0.13l0.71,2.04h-0.16l-0.19-0.55h-0.84L-1.55,3.2H-1.72z M-1.32,2.52h0.75l-0.29-0.83
		c-0.01-0.02-0.01-0.04-0.03-0.08C-0.89,1.58-0.9,1.54-0.92,1.5c-0.01-0.04-0.02-0.07-0.03-0.1c-0.01,0.03-0.02,0.06-0.03,0.1
		C-0.98,1.54-1,1.58-1.01,1.61c-0.01,0.04-0.02,0.06-0.03,0.08L-1.32,2.52z"/>
	<path class="st1" d="M-6.16,3.24l-0.64-1.52c-0.01-0.03-0.02-0.05-0.03-0.08c-0.01-0.03-0.02-0.05-0.03-0.08c0,0.02,0,0.05,0,0.08
		c0,0.03,0,0.06,0,0.08V3.2h-0.15V1.17h0.14l0.66,1.56C-6.21,2.75-6.2,2.77-6.19,2.8s0.02,0.05,0.03,0.07
		c0.01-0.02,0.02-0.05,0.03-0.07c0.01-0.02,0.02-0.05,0.03-0.07l0.66-1.56h0.14V3.2h-0.15V1.71c0-0.03,0-0.05,0-0.08
		c0-0.03,0-0.05,0-0.08c-0.01,0.03-0.02,0.05-0.03,0.08C-5.5,1.66-5.51,1.69-5.53,1.72L-6.16,3.24z"/>
</g>
</svg>
