<?xml version="1.0" encoding="utf-8"?>
<!-- Generator: Adobe Illustrator 25.2.3, SVG Export Plug-In . SVG Version: 6.00 Build 0)  -->
<svg version="1.1" id="Capa_1" xmlns="http://www.w3.org/2000/svg" xmlns:xlink="http://www.w3.org/1999/xlink" x="0px" y="0px"
	 viewBox="0 0 7.04 4.37" style="enable-background:new 0 0 7.04 4.37;" xml:space="preserve">
<style type="text/css">
	.st0{fill:#E63946;}
	.st1{fill:#91212A;}
</style>
<g id="cine">
	<path class="st0" d="M18.04,3.2V1.17h1.43v0.4h-1.01v0.39h0.58v0.4h-0.58V2.8h1.07v0.4H18.04z"/>
	<path class="st0" d="M15.94,3.2V1.17h0.38l0.77,1.12c0.01,0.02,0.02,0.04,0.04,0.07c0.02,0.03,0.03,0.06,0.04,0.08
		c0-0.02-0.01-0.05-0.01-0.08c0-0.03,0-0.06,0-0.07V1.17h0.42V3.2h-0.37l-0.79-1.13c-0.01-0.02-0.03-0.04-0.04-0.07
		c-0.02-0.03-0.03-0.06-0.04-0.08c0,0.02,0.01,0.05,0.01,0.08c0,0.03,0,0.05,0,0.07V3.2H15.94z"/>
	<path class="st0" d="M15.07,3.2V1.17h0.42V3.2H15.07z"/>
	<path class="st0" d="M14.03,3.23c-0.16,0-0.29-0.03-0.41-0.09C13.52,3.08,13.43,3,13.36,2.9s-0.12-0.21-0.14-0.34
		c-0.03-0.12-0.04-0.25-0.04-0.38c0-0.12,0.02-0.24,0.05-0.36c0.03-0.12,0.08-0.24,0.15-0.34c0.07-0.1,0.16-0.19,0.26-0.25
		c0.11-0.06,0.24-0.1,0.4-0.1c0.13,0,0.24,0.02,0.34,0.07c0.1,0.05,0.18,0.1,0.25,0.18s0.12,0.15,0.15,0.23l-0.37,0.17
		c-0.03-0.05-0.07-0.09-0.1-0.13c-0.03-0.04-0.07-0.06-0.11-0.08s-0.09-0.03-0.15-0.03c-0.08,0-0.15,0.02-0.2,0.06
		c-0.05,0.04-0.1,0.09-0.13,0.16s-0.06,0.14-0.07,0.21S13.6,2.11,13.6,2.18c0,0.08,0.01,0.15,0.03,0.23s0.04,0.15,0.08,0.21
		c0.03,0.06,0.08,0.11,0.13,0.15c0.05,0.04,0.12,0.06,0.19,0.06c0.08,0,0.14-0.02,0.2-0.07s0.11-0.11,0.16-0.19l0.38,0.14
		c-0.05,0.1-0.1,0.19-0.17,0.27c-0.07,0.08-0.15,0.14-0.24,0.18C14.26,3.21,14.15,3.23,14.03,3.23z"/>
</g>
<g id="iso">
	<path class="st0" d="M11.24,0.09c-0.51,0-1.03,0.13-1.28,0.37C9.71,0.22,9.19,0.09,8.68,0.09C8,0.09,7.27,0.33,7.27,0.76v2.85
		c0,0.08,0.06,0.14,0.14,0.14c0.07,0,0.13-0.06,0.13-0.14c0-0.16,0.45-0.39,1.14-0.39c0.7,0,1.14,0.23,1.14,0.39
		c0,0.08,0.06,0.14,0.14,0.14s0.14-0.06,0.14-0.14c0-0.16,0.44-0.39,1.14-0.39c0.1,0,0.19,0,0.28,0.01v0.4
		c-0.09,0.01-0.18,0.01-0.28,0.01v0.63c0.66,0,1.35-0.21,1.41-0.6c0.01-0.02,0.01-0.04,0.01-0.06V0.76
		C12.66,0.33,11.93,0.09,11.24,0.09z M9.82,3.2C9.55,3.03,9.11,2.94,8.68,2.94c-0.42,0-0.86,0.09-1.14,0.26V0.76
		c0-0.16,0.45-0.39,1.14-0.39c0.7,0,1.14,0.23,1.14,0.39V3.2z M12.09,3.51C12,3.54,11.91,3.57,11.81,3.59V3.1
		c0.2-0.05,0.25-0.08,0.28-0.1V3.51z M12.09,2.11c-0.07,0.03-0.27,0.08-0.28,0.08V1.7c0.1-0.02,0.19-0.04,0.28-0.07V2.11z
		 M11.24,1.14v0.62c0.1,0,0.19-0.01,0.28-0.02v0.49c-0.09,0.01-0.18,0.01-0.28,0.01v0.7c-0.42,0-0.86,0.09-1.14,0.26V0.76
		c0-0.16,0.44-0.39,1.14-0.39c0.7,0,1.14,0.23,1.14,0.39C12.38,0.91,11.93,1.14,11.24,1.14z M12.52,3.12c0,0.09-0.05,0.16-0.14,0.24
		v0.01h-0.01V2.88l0.01-0.01c0.09-0.07,0.14-0.15,0.14-0.23V3.12z M12.52,1.72c0,0.09-0.05,0.17-0.14,0.24l-0.01,0.01V1.48
		l0.01-0.01c0.09-0.07,0.14-0.15,0.14-0.23V1.72z"/>
	<g>
		<path class="st1" d="M9.82,0.76V3.2C9.55,3.03,9.11,2.94,8.68,2.94c-0.42,0-0.86,0.09-1.14,0.26V0.76c0-0.16,0.45-0.39,1.14-0.39
			C9.38,0.37,9.82,0.6,9.82,0.76z"/>
	</g>
	<g>
		<path class="st1" d="M11.24,1.14v0.62c0.1,0,0.19-0.01,0.28-0.02v0.49c-0.09,0.01-0.18,0.01-0.28,0.01v0.7
			c-0.42,0-0.86,0.09-1.14,0.26V0.76c0-0.16,0.44-0.39,1.14-0.39c0.7,0,1.14,0.23,1.14,0.39C12.38,0.91,11.93,1.14,11.24,1.14z"/>
		<rect x="12.37" y="3.36" class="st1" width="0.01" height="0.01"/>
		<path class="st1" d="M12.37,3.36v0.01h0.01V3.36H12.37z"/>
	</g>
</g>
<g id="maga">
	<path class="st1" d="M2.19,3.2l0.71-2.04h0.13L3.73,3.2H3.57L3.38,2.66H2.54L2.35,3.2H2.19z M2.58,2.52h0.75L3.05,1.69
		C3.04,1.68,3.03,1.65,3.02,1.61C3.01,1.58,3,1.54,2.99,1.5c-0.01-0.04-0.02-0.07-0.03-0.1C2.95,1.43,2.94,1.46,2.93,1.5
		C2.92,1.54,2.91,1.58,2.9,1.61C2.88,1.65,2.87,1.68,2.87,1.69L2.58,2.52z"/>
	<path class="st1" d="M4.7,3.24c-0.15,0-0.27-0.03-0.38-0.09c-0.1-0.06-0.19-0.14-0.25-0.24S3.96,2.7,3.93,2.57
		C3.9,2.45,3.89,2.32,3.89,2.18c0-0.14,0.02-0.27,0.05-0.39c0.03-0.13,0.08-0.24,0.15-0.34c0.07-0.1,0.15-0.18,0.25-0.23
		c0.1-0.06,0.23-0.09,0.37-0.09c0.11,0,0.2,0.02,0.27,0.05c0.08,0.03,0.14,0.07,0.19,0.11c0.05,0.05,0.09,0.1,0.13,0.15L5.16,1.52
		C5.11,1.46,5.05,1.4,4.98,1.35C4.91,1.3,4.82,1.28,4.7,1.28c-0.12,0-0.23,0.03-0.31,0.08s-0.15,0.12-0.2,0.21
		C4.14,1.66,4.1,1.76,4.08,1.87C4.06,1.97,4.05,2.08,4.05,2.18c0,0.12,0.01,0.23,0.04,0.34c0.02,0.11,0.06,0.2,0.12,0.29
		c0.05,0.09,0.12,0.15,0.2,0.2c0.08,0.05,0.18,0.07,0.3,0.07c0.1,0,0.19-0.02,0.27-0.07C5.05,2.97,5.11,2.9,5.15,2.8
		c0.04-0.09,0.06-0.21,0.06-0.35V2.41H4.81V2.26h0.57v0.15c0,0.19-0.03,0.35-0.09,0.47C5.23,3,5.15,3.09,5.05,3.15
		C4.95,3.21,4.83,3.24,4.7,3.24z"/>
	<path class="st1" d="M5.5,3.2L6.2,1.17h0.13L7.04,3.2H6.88L6.68,2.66H5.85L5.66,3.2H5.5z M5.89,2.52h0.75L6.36,1.69
		C6.35,1.68,6.34,1.65,6.33,1.61C6.32,1.58,6.31,1.54,6.29,1.5c-0.01-0.04-0.02-0.07-0.03-0.1C6.26,1.43,6.25,1.46,6.24,1.5
		C6.23,1.54,6.21,1.58,6.2,1.61C6.19,1.65,6.18,1.68,6.18,1.69L5.89,2.52z"/>
	<path class="st1" d="M1.05,3.24L0.4,1.71C0.39,1.69,0.38,1.66,0.37,1.63C0.36,1.61,0.35,1.58,0.34,1.56c0,0.02,0,0.05,0,0.08
		c0,0.03,0,0.06,0,0.08V3.2H0.19V1.17h0.14l0.66,1.56C1,2.75,1.01,2.77,1.02,2.8s0.02,0.05,0.03,0.07C1.06,2.85,1.06,2.82,1.07,2.8
		C1.08,2.77,1.09,2.75,1.1,2.72l0.66-1.56H1.9V3.2H1.75V1.71c0-0.03,0-0.05,0-0.08c0-0.03,0-0.05,0-0.08
		C1.74,1.58,1.73,1.61,1.72,1.63C1.71,1.66,1.7,1.69,1.68,1.72L1.05,3.24z"/>
</g>
</svg>
